# xmcd
#
# Track frame offsets:
#	150
#	18259
#	25651
#	37827
#	55048
#	69117
#	90079
#	101764
#	118143
#	130801
#	143169
#	159440
#	177771
#	187258
#	195566
#
# Disc length: 2693 seconds
#
# Revision: 1
# Processed by: cddbd v1.5.2PL0 Copyright (c) Steve Scherf et al.
# Submitted via: audiograbber 1.83.01
#
DISCID=b70a830f
DTITLE=Red Clay Ramblers - Stolen Love
DYEAR=1975
DGENRE=Bluegrass
TTITLE0=Yellow Rose Of Texas
TTITLE1=Big Sciota
TTITLE2=Abe's Retreat
TTITLE3=The Golden Vanity
TTITLE4=Stolen Love
TTITLE5=I've Got What It Takes (But It Breaks My Heart To Give It Away)
TTITLE6=Keep The Home Fires Burning
TTITLE7=Honey Babe
TTITLE8=Balleydesmond Polka
TTITLE9=Wind And Rain
TTITLE10=She's Been After Man Ever Since
TTITLE11=Kingdom Coming (In The Year Of Jubilo)
TTITLE12=Staten Island Hornpipe
TTITLE13=Parting Hand
TTITLE14=Forked Deer
EXTD=CD - Flying Fish 009 - 1975
EXTT0=
EXTT1=
EXTT2=
EXTT3=
EXTT4=
EXTT5=
EXTT6=
EXTT7=
EXTT8=
EXTT9=
EXTT10=
EXTT11=
EXTT12=
EXTT13=
EXTT14=
PLAYORDER=
